<?xml version="1.0" encoding="UTF-8"?>
<svg id="Layer_1" xmlns="http://www.w3.org/2000/svg" version="1.1" viewBox="0 0 513.69 39.97">
  <!-- Generator: Adobe Illustrator 29.4.0, SVG Export Plug-In . SVG Version: 2.1.0 Build 152)  -->
  <defs>
    <style>
      .st0 {
        fill-rule: evenodd;
      }

      .st0, .st1 {
        fill: #fff;
      }

      .st2 {
        fill: #618e1a;
      }
    </style>
  </defs>
  <g>
    <g>
      <g>
        <polygon class="st0" points="16.57 12.73 17.84 7.38 29.84 7.38 31.99 .13 8.98 .13 0 31.11 11.14 31.11 14.57 19.46 26.28 19.46 28.28 12.73 16.57 12.73"/>
        <polygon class="st0" points="32.6 8.24 26.28 31.11 36.95 31.11 43.43 8.24 32.6 8.24"/>
        <polygon class="st0" points="46.09 .13 35.01 .13 33.14 6.03 44.38 6.03 46.09 .13"/>
        <path class="st0" d="M63.62.13l-3.11,10.88c-.95-1.69-3.08-2.98-6.19-2.98-3.68,0-6.79,1.66-8.54,4.67-2.32,3.93-3.88,9.78-3.88,13.71,0,3.57,2.32,5.07,5.81,5.07s5.81-1.14,7.97-3.01l-.79,2.64h10.86L74.66.13h-11.04ZM57.01,23.4c-.57.4-1.14.58-1.94.58-1.15,0-1.75-.77-1.75-1.51,0-1.88.79-3.75,1.56-5.63.57-1.32,1.55-1.69,2.54-1.69.76,0,1.33.37,1.71.92l-2.13,7.32Z"/>
        <path class="st0" d="M96.73,21c.6-1.88,1.17-4.89,1.17-6.18,0-5.63-4.48-6.95-11.27-6.95-4.48,0-9.36,1.32-12.06,4.67-2.35,3.01-4.1,8.64-4.1,11.8,0,6.21,5.05,7.13,11.68,7.13,4.85,0,12.63-2.24,14-8.61h-10.7c-.79,2.06-1.36,2.8-2.92,2.8s-1.56-1.32-1.56-1.69c0-.92.19-1.69.57-2.98h15.17ZM85.65,13.5c1.17,0,1.94.37,1.94,1.51,0,.55-.19,1.11-.19,1.66h-4.67c.57-2.24,1.56-3.17,2.92-3.17Z"/>
        <polygon class="st0" points="106.04 .13 97.18 31.11 108.13 31.11 116.99 .13 106.04 .13"/>
        <polygon class="st0" points="131.42 .13 120.18 .13 118.47 6.03 129.71 6.03 131.42 .13"/>
        <polygon class="st0" points="117.87 8.24 111.23 31.11 122.34 31.11 129.14 8.24 117.87 8.24"/>
        <path class="st0" d="M164.31,8.52l-6.06,12.45.19-12.45h-15.21l1.56-5.07h-11.11l-6.07,20.5c-.38,1.14-.38,2.27-.38,3.23,0,2.24,1.17,3.93,4.48,3.93h9.78l1.74-5.66h-2.35c-1.56,0-1.94-.37-1.94-1.29,0-.58.19-1.32.38-2.09l2.35-8.45h6.03l1.56,17.49c-.19,1.32-.57,2.09-1.56,2.27-.95.55-3.11.37-3.71.37h-.19l-1.75,6.21h7.62c4.29,0,6.63-2.24,9.75-6.98l16.19-24.47h-11.3Z"/>
      </g>
      <g>
        <path class="st1" d="M260.41,11.46c-2.26-1.96-5.42-2.93-9.49-2.93h-7.34v22.59h7.57c3.91,0,7-.99,9.26-2.97,2.26-2,3.39-4.77,3.39-8.33s-1.13-6.4-3.39-8.36ZM258.19,26.48c-1.72,1.53-4.16,2.3-7.34,2.3h-4.34V10.88h4.43c3.07,0,5.47.79,7.21,2.36,1.76,1.55,2.64,3.74,2.64,6.57s-.87,5.11-2.61,6.67Z"/>
        <rect class="st1" x="269.6" y="8.52" width="2.9" height="22.59"/>
        <path class="st1" d="M299.11,19.02h-8.12v2.33h5.28v6.79c-.8.4-1.67.71-2.61.93-.94.21-1.92.32-2.97.32-2.85,0-5.13-.88-6.85-2.65-1.7-1.77-2.54-4.07-2.54-6.92s.88-5.04,2.64-6.83c1.76-1.79,4.04-2.68,6.85-2.68,1.24,0,2.52.23,3.85.7,1.35.47,2.64,1.13,3.88,1.98v-3.16c-1.09-.62-2.31-1.1-3.68-1.44-1.35-.34-2.75-.51-4.21-.51-3.63,0-6.6,1.12-8.9,3.35-2.28,2.21-3.42,5.07-3.42,8.58s1.14,6.37,3.42,8.58c2.28,2.19,5.27,3.29,8.97,3.29,1.57,0,3.12-.2,4.66-.61,1.54-.4,2.97-.98,4.27-1.72l-.52-1.08v-9.25Z"/>
        <rect class="st1" x="305.75" y="8.52" width="2.9" height="22.59"/>
        <polygon class="st1" points="330.6 8.52 313.12 8.52 313.12 10.88 320.42 10.88 320.42 31.11 323.29 31.11 323.29 10.88 330.6 10.88 330.6 8.52"/>
        <path class="st1" d="M339.62,8.52l-9.91,22.59h3l2.31-5.55h11.54l2.22,5.55h3.1l-9.65-22.59h-2.61ZM335.97,23.26l4.92-11.77,4.73,11.77h-9.65Z"/>
        <polygon class="st1" points="358.95 8.52 356.14 8.52 356.14 31.11 369.32 31.11 369.32 28.78 358.95 28.78 358.95 8.52"/>
        <path class="st1" d="M390.23,8.52l-9.91,22.59h3l2.31-5.55h11.54l2.22,5.55h3.1l-9.65-22.59h-2.61ZM386.58,23.26l4.92-11.77,4.73,11.77h-9.65Z"/>
        <path class="st1" d="M413.73,18.48c-1.85-.53-3.11-1.12-3.78-1.75-.65-.66-.98-1.51-.98-2.55,0-1.23.41-2.21,1.24-2.94.83-.72,1.94-1.08,3.33-1.08,1.07,0,2.14.24,3.23.73,1.09.47,2.2,1.19,3.32,2.17v-3.16c-.96-.68-1.97-1.18-3.03-1.5-1.06-.34-2.18-.51-3.36-.51-2.24,0-4.07.58-5.51,1.75-1.41,1.15-2.12,2.68-2.12,4.59,0,1.7.5,3.07,1.5,4.12,1,1.02,2.69,1.86,5.05,2.52,1.89.55,3.19,1.18,3.91,1.88.74.68,1.11,1.54,1.11,2.58,0,1.25-.44,2.27-1.3,3.03-.87.77-2.02,1.15-3.46,1.15-1.11,0-2.25-.26-3.42-.77-1.17-.53-2.4-1.34-3.68-2.42v3.32c1.13.7,2.28,1.22,3.46,1.56,1.2.36,2.4.54,3.62.54,2.24,0,4.09-.61,5.54-1.82,1.46-1.21,2.18-2.82,2.18-4.82,0-1.64-.52-2.97-1.56-3.99-1.02-1.04-2.78-1.92-5.28-2.65Z"/>
        <path class="st1" d="M433.42,18.48c-1.85-.53-3.11-1.12-3.78-1.75-.65-.66-.98-1.51-.98-2.55,0-1.23.41-2.21,1.24-2.94.83-.72,1.94-1.08,3.33-1.08,1.06,0,2.14.24,3.23.73,1.09.47,2.2,1.19,3.33,2.17v-3.16c-.96-.68-1.97-1.18-3.03-1.5-1.07-.34-2.18-.51-3.36-.51-2.24,0-4.08.58-5.51,1.75-1.41,1.15-2.12,2.68-2.12,4.59,0,1.7.5,3.07,1.5,4.12,1,1.02,2.69,1.86,5.05,2.52,1.89.55,3.2,1.18,3.91,1.88.74.68,1.11,1.54,1.11,2.58,0,1.25-.44,2.27-1.3,3.03-.87.77-2.02,1.15-3.46,1.15-1.11,0-2.25-.26-3.42-.77-1.17-.53-2.4-1.34-3.68-2.42v3.32c1.13.7,2.28,1.22,3.46,1.56,1.19.36,2.4.54,3.62.54,2.24,0,4.09-.61,5.54-1.82,1.46-1.21,2.18-2.82,2.18-4.82,0-1.64-.52-2.97-1.56-3.99-1.02-1.04-2.78-1.92-5.28-2.65Z"/>
        <polygon class="st1" points="448.99 20.68 459.79 20.68 459.79 18.32 448.99 18.32 448.99 10.88 460.54 10.88 460.54 8.52 446.12 8.52 446.12 31.11 460.99 31.11 460.99 28.78 448.99 28.78 448.99 20.68"/>
        <polygon class="st1" points="464.22 10.88 471.52 10.88 471.52 31.11 474.39 31.11 474.39 10.88 481.7 10.88 481.7 8.52 464.22 8.52 464.22 10.88"/>
        <path class="st1" d="M498.39,21.12c-1.02-1.04-2.78-1.92-5.28-2.65-1.85-.53-3.11-1.12-3.78-1.75-.65-.66-.98-1.51-.98-2.55,0-1.23.41-2.21,1.24-2.94.83-.72,1.94-1.08,3.33-1.08,1.07,0,2.14.24,3.23.73,1.09.47,2.2,1.19,3.32,2.17v-3.16c-.96-.68-1.97-1.18-3.03-1.5-1.07-.34-2.18-.51-3.36-.51-2.24,0-4.08.58-5.51,1.75-1.41,1.15-2.12,2.68-2.12,4.59,0,1.7.5,3.07,1.5,4.12,1,1.02,2.68,1.86,5.05,2.52,1.89.55,3.19,1.18,3.91,1.88.74.68,1.11,1.54,1.11,2.58,0,1.25-.44,2.27-1.3,3.03-.87.77-2.02,1.15-3.46,1.15-1.11,0-2.25-.26-3.42-.77-1.17-.53-2.4-1.34-3.68-2.42v3.32c1.13.7,2.28,1.22,3.46,1.56,1.2.36,2.4.54,3.62.54,2.24,0,4.09-.61,5.54-1.82,1.46-1.21,2.18-2.82,2.18-4.82,0-1.64-.52-2.97-1.56-3.99Z"/>
      </g>
    </g>
    <path class="st2" d="M232.01,39.97L203.86,0l-28.15,39.97,28.15-10.72,28.15,10.72ZM203.81,22.11l13.58,9.33-13.59-5.03-13.27,4.99,13.28-9.29ZM187.02,31.19l16.79-15.42,17.35,15.61-17.36-11.92-16.78,11.73ZM203.8,13.42l-17.78,16.33,17.8-20.88,18.24,20.97-18.25-16.42ZM221.12,26.78l-17.32-19.91-18.33,21.51,18.39-26.11,17.27,24.51Z"/>
  </g>
  <path class="st1" d="M506.1,15.45c-1.03,0-1.91-.35-2.63-1.06-.73-.71-1.09-1.57-1.09-2.59s.36-1.89,1.09-2.61c.73-.72,1.6-1.08,2.63-1.08s1.89.36,2.61,1.08c.72.72,1.08,1.59,1.08,2.61s-.36,1.88-1.08,2.59c-.72.71-1.59,1.06-2.61,1.06ZM506.1,8.52c-.92,0-1.7.32-2.35.97s-.97,1.41-.97,2.31.32,1.67.97,2.3c.65.64,1.43.96,2.34.96s1.65-.32,2.29-.97c.64-.64.96-1.41.96-2.3s-.32-1.67-.96-2.31c-.64-.64-1.4-.97-2.29-.97ZM506.77,12.01l1.15,1.8h-.84l-1.04-1.7h-.65v1.7h-.75v-4.16h1.54c.49,0,.87.11,1.14.32.28.22.41.52.41.91,0,.29-.09.54-.27.75s-.41.33-.71.37ZM505.39,10.24v1.35h.65c.31,0,.55-.06.71-.18s.24-.3.24-.54c0-.21-.07-.36-.21-.47-.14-.11-.34-.16-.58-.16h-.8Z"/>
</svg>